<svg xmlns="http://www.w3.org/2000/svg" width="850" height="280">
  <metadata>
    image/svg+xml
  </metadata>
  <defs>
    <filter id="a" width="200%" height="200%" x="-50%" y="-50%">
      <feGaussianBlur in="SourceGraphic"/>
    </filter>
  </defs>
  <path fill="none" d="M-1-1h852v282H-1z"/>
  <g>
    <path stroke="null" style="fill:#f7edd7"  d="M159.028099 259.360326c-4.078802-.347069-10.950982-.859522-15.271511-1.138768-15.381902-.994165-24.892415-1.718235-26.178906-1.993084-.717907-.153374-3.562803-.471179-6.321987-.706209-2.759184-.235031-5.701286-.607604-6.538-.827921-.836714-.220316-2.797155-.515506-4.356538-.65598-5.143327-.463309-9.869183-1.35643-13.612508-2.572582-1.45083-.471343-2.833706-.714417-3.073036-.54016-.239338.174267-.301496.061686-.138133-.250176.201063-.383825-1.251319-.637494-4.495394-.785161-2.635829-.11997-5.083246-.368147-5.438706-.551483-.35546-.183336-.757249-1.191549-.892854-2.240463-.280396-2.168848-.739606-2.502709-4.909358-3.569278-1.554137-.397525-3.995117-1.235672-5.424404-1.862551-1.429279-.626879-3.114907-1.280389-3.745845-1.452258-1.801422-.490709-1.769509-1.695651.105589-3.987409 1.97182-2.409945 3.526343-3.413516 6.690066-4.319026 2.051351-.587111 4.858407-3.02132 4.883168-4.234541.008292-.407525-1.871781-1.19948-4.549317-1.916326-.717119-.191984-3.068216-.541011-5.224663-.775621-2.156455-.2346-5.024241-.821097-6.372881-1.303321-1.498859-.535938-4.51261-.942285-7.752744-1.045297-5.754225-.182946-8.214835-1.034117-8.578013-2.967299-.123027-.654852-1.196977-1.69105-2.730473-2.634503-1.390224-.855311-2.422631-1.755646-2.294227-2.000759.128396-.245124-.024712-.342356-.340173-.216064-1.416964.56716-3.526704-.683584-4.273707-2.533624-.814161-2.016375-.430738-3.875749.791206-3.836894.35184.011169.64501-.16357.651505-.388343.006568-.224774 1.338189-.437251 2.959344-.472173 1.621147-.034839 3.017856-.297311 3.103807-.583084.08595-.285773.521335-.507975.967524-.493783.446189.014141.937713-.215623 1.092275-.51068.15457-.295057.477543-.530221.717735-.522587.240192.007173.336667.204875.214388.438307-.122288.233432.353654.433163 1.057629.443861.755936.011476 1.28594-.273139 1.294553-.695225.00821-.393067.208009-.556832.444424-.363915.236407.192906.434596.117234.440417-.16816.017159-.840863-1.119606-1.18411-3.129956-.945083-1.034411.122972-2.759381-.083409-3.833273-.459108-1.073893-.375484-2.245854-.763417-2.60436-.862063-.358514-.098677-.994912-.374736-1.414238-.613517-.419326-.238781-1.154917-.31928-1.634636-.178899-1.115616.326484-1.481174-.427312-.61855-1.275481.365197-.359079.662637-.438788.660979-.177136-.001642.261652.146368.235062.32895-.059124.561564-.904741 2.326139-1.891969 2.313947-1.29456-.006568.302322.1969.556289.451263.564373.254362.008197.370452-.182188.257966-.422844-.29015-.620761 3.216308-.607174 4.09454.015883.469078.332785.911326.301819 1.238922-.08679.588271-.697735 2.348585-.929036 1.999545-.262728-.40674.776451.997893.518775 1.561723-.286501.401461-.57337.816263-.630188 1.61595-.221331 1.382285.706722 1.852004.705441 1.03024-.002049-.482723-.416041-.261316-.532055.883437-.46294.84017.050722 3.00715-.138547 4.81551-.4206 1.808343-.282064 3.814111-.529063 4.457233-.548901 1.912207-.058919 1.399665-1.896406-1.151986-4.129809-1.457825-1.276003-2.147227-2.225738-1.980703-2.728661.162665-.491262.431518-.587183.740279-.264091.266669.279031.881935.322108 1.367236.095705.485318-.226393 1.615161-.405568 2.510766-.39818 1.260432.010452 1.806389-.307506 2.416186-1.406937.990536-1.785874 1.133325-2.797417.586473-4.154719-.237433-.589293-.254099-.926526-.037027-.74941.217056.177116.673056-.576423 1.013344-1.674542.34028-1.098109.840335-2.169821 1.111215-2.381602.270881-.21175-.293409-.417526-1.253979-.457253-1.289996-.053283-1.572453-.204885-1.080649-.579764.504956-.38489.321512-.520486-.75922-.561197-.783784-.029306-1.761767-.286501-2.173302-.571095-.411543-.284584-2.553556-1.481851-4.760043-2.660571-4.425034-2.363885-6.99877-2.952431-16.406576-3.751732-7.209562-.612533-8.019487-.749574-9.149388-1.548015-1.150213-.812797-7.095541-2.12782-10.871616-2.404647-1.979291-.145095-3.738908-.642761-4.999134-1.413853-1.069615-.654473-2.922826-1.386351-4.118243-1.626403-2.377279-.477388-5.420431-1.93104-5.40713-2.58288.004926-.226188 1.147832-.838137 2.540469-1.359873 2.14006-.801751 3.952031-.909598 11.703781-.696536 6.192146.170189 9.716773.043549 10.849506-.389819 1.635769-.625813 3.202647-.481292 7.196254.663747 1.029403.295149 3.957228.64768 6.506261.783399 2.549041.135719 5.008724.512166 5.46598.836549.488897.346854 1.490468.440028 2.431482.226229.880071-.199956 1.772654-.305846 1.983519-.235328.779022.260556 14.076603.513078 15.558212.295446 2.511776-.368936 5.663832-.594509 10.007481-.71618 2.252684-.06312 4.313977-.373496 4.580654-.689804.47393-.562109-.326044-.873909-1.763368-.687263-.301233.039143-.541934-.211156-.53489-.556145.007389-.344999-.270347-.501878-.616423-.348627-.346076.153241-.864447-.094066-1.151945-.549495-.419753-.665007-.59635-.691095-.89654-.13244-.304681.567007-.372356.562836-.365854-.022543.004926-.453974-.296824-.608096-.820384-.418879-.551589.199341-.920382-.024387-1.103818-.66969-.151516-.532987-.062396-1.050246.198009-1.149465.673351-.256549 1.799098-1.661805 1.811323-2.261059.017077-.835729-1.690808-2.806107-2.14538-2.475145-.232277.169134-.303392-.051644-.158026-.490729.200907-.606785.027339-.728886-.72381-.509081-.78472.229641-.928198.108216-.697054-.589898.430647-1.300637-.486492-1.751895-1.235925-.608096-.410713.626848-.561211.691925-.411378.177884.26405-.905827-1.74859-2.430684-2.492909-1.888741-.256456.186727-.310346.061276-.125367-.291849.178444-.340624.116327-.625956-.138035-.634041-.25437-.008197-.469998.353207-.479177.802878-.023563 1.153954-.887682.995763-.901335-.165014-.009524-.810717-.067568-.791985-.384836.124119-.205488.593413-.316282 1.213887-.246201 1.37882.070113.164932-.252737.323491-.717365.352346-1.021669.063428-1.072579-.36909-.138486-1.176824.542747-.469324.157755-.579918-1.771619-.508866-1.456183.053591-2.357255-.115041-2.201659-.412034.146179-.279061-.128133-.388241-.616456-.245329-.511598.149716-.874365-.010759-.866771-.383312.007389-.352439-.220455-.470748-.505884-.262933-.364598.265474-.413053.070703-.162911-.65475.195825-.567929.407782-1.365335.471008-1.772.196703-1.265275 1.315948-1.600786 2.672503-.801115.712464.419986 1.049336.775724.748596.79052-1.073154.052873-.547311 1.117721.569462 1.153226.821542.026129 1.074558-.188736.908822-.771758-.126319-.444363-.029063-.953987.216079-1.132497.284788-.207364.247392-.64561-.103569-1.213682-.464358-.751613-.442888-.835586.138733-.542906.37844.190427.970036.109323 1.314667-.180231.494899-.415815.463504-.466588-.149356-.241527-.654148.240226-.725518.053386-.454662-1.190166.176712-.811321.482846-1.601483.680297-1.755922.642662-.502657-.031691-2.657487-.734294-2.346363-.455688.20178-.602195-.018854-.488183-.735023.119185-.74858-.072248-.998458-.712956-.930696-.48173.050927-.626218-.035966-.321077-.193142.305141-.157176.456254-.496591.335822-.754246-.120432-.257656.183165-.801279.674649-1.208046.491483-.406777.767151-.905663.612597-1.108652-.15457-.202989.09572-.360851.556178-.350809.687251.01496.723794-.076339.204027-.510127-.415492-.346731-.746043-.312917-.961481.098369-.180571.344713-.449998.466926-.598731.271591-.272671-.358115.584683-2.64265 1.174531-3.129659.48214-.398088 1.08482-2.879248.616563-2.538296-.221284.16111-.622359-.172802-.891286-.742022-.435138-.921013-.358564-1.019772.695576-.897066.746585.086893 1.149326-.115297 1.089278-.546902-.05238-.376631.051477-.651051.230939-.609828.897181.206155 1.422259-.099599 1.437308-.837.009195-.44966.224806-.810962.479177-.802867.254362.008197.355977-.213164.225808-.491652-.130178-.278488.012725-.622719.317563-.764954.33436-.156008.251407-.285312-.209125-.32593-.419851-.036991-.759523-.255535-.754827-.485565.004926-.23003-.679197-.399748-1.519761-.377164-.840564.022543-1.414862-.175487-1.276203-.440172.13865-.264685-.164143-.49448-.672875-.51066-.508724-.01619-.798496-.270823-.643943-.56588.15457-.295057.051887-.543757-.228181-.552651-.292703-.009222-.384482-.392862-.215866-.902118.245266-.740762.182057-.776513-.385788-.218185-.557065.547722-.67611.52023-.662366-.153005.009195-.451413.412405-.936537.895982-1.078045.529241-.15488.888601-.715698.902747-1.408822.019786-.969757-.167082-1.107454-1.183931-.872382-.990816.229057-1.070765.176429-.445639-.293356.707792-.531922.697292-.669946-.148305-1.94807-.500539-.756552-1.202157-1.384855-1.559169-1.396198-1.314142-.041807-.126935-.578104 1.640103-.740915 1.064016-.098062 1.714223.040782 1.561041.333164-.144389.275639-.066008.507422.174175.515055.240192.007173.541211-.1856.668926-.429413.127723-.243802.879472-.376898 1.670546-.295753.791083.081155 1.671039-.068141 1.955458-.33174.317711-.294473.622022-.254858.789162.102734.184183.39403.538568.414729 1.097275.064042.453882-.284861 1.281729-.482583 1.839672-.439383 1.550179.120031 6.913321-.306513 7.288476-.579661.292243-.212785 5.074658-.819447 6.538362-.829407.766601-.005123.735468-2.568821-.040393-3.325578-.352948-.344272-.671529-1.307369-.70794-2.140229-.041132-.940636-.271529-1.423362-.608213-1.274261-.317366.140525-.441714-.062915-.300018-.490852.1581-.47747-.209897-.869871-1.061438-1.131841-1.431881-.4405-2.432278-1.662431-2.014299-2.460339.150604-.287494-.116672-.397627-.612712-.252461-.626768.183418-.874373-.010657-.860818-.674701.010427-.512699-.371404-1.072953-.848577-1.245017-.968928-.349375-1.111716-1.020366-.337144-1.58434.321134-.233822.38853-.136938.18071.259777-.18227.347951-.168691.602666.030213.566054.935669-.172361 1.449213.171706 1.433113.960187-.022906 1.123664 1.034493.720996 1.245654-.474335.089226-.505095-.000821-.88808-.201129-.851089-1.209423.223964-1.886896-.223503-1.866305-1.232649.012561-.617247.216333-.964429.45274-.771523.236415.192906.440138-.154276.45274-.771523.012561-.617257.29666-1.113571.631242-1.102935.334599.010657.733153-.357583.885687-.818279.152534-.460686.095121-.704939-.127592-.542783-.222713.162156-.483536-.017522-.579618-.399164-.096082-.381683-.131795-.263107-.079391.263507.052462.526624-.08279.951825-.300494.944909-.217713-.007173-.389868-.30474-.382578-.66181.007389-.35708-.27446-.18351-.626111.3857-.469325.759667-.507649 1.142385-.144127 1.43903.284279.231967.110786.355646-.407339.290333-.801288-.101033-1.337245-1.545371-.564323-1.520789.170144.005123.442273-.722246.60474-1.616996.234634-1.292152.522246-1.619619 1.398097-1.591769.606473.019264 1.107693-.210213 1.11381-.509993.005747-.29978.404162-.532557.884545-.517279.92498.029408 1.158012.831077.401666 1.381771-.807462.58792-.063463 1.227372 1.309396 1.125426 1.787424-.132717 2.225279-.731724.622187-.851171-1.248692-.093041-1.251943-.101443-.172944-.44798l1.099697-.353146-.968985-.69833c-1.116453-.804609-1.263872-1.760134-.266677-1.72844.374466.011886.55438.263066.399811.558123-.154561.295067-.072905.543091.181457.551175.254362.008197.472494-.475841.484735-1.075402.013546-.660365.313384-1.080843.76078-1.06662.642515.020494.63038-.081052-.093323-.780509-.664329-.642085-.8787-.663941-1.064533-.108544-.141327.422383-.550866.542045-1.042998.30475-.761502-.367163-.764614-.444885-.051723-1.290461.41724-.494869 1.039353-.890836 1.382482-.879934.563658.017932.829489-.63566.711741-1.749938-.023891-.225737.263007-.400691.637465-.388784.374458.011886.572434-.210275.439941-.493732-.313573-.670858.528313-1.279928 1.111445-.804097.308113.251415.283943.605955-.076353 1.12058-.378949.541215-.389318.757177-.036945.768377.512123.016292.664304-.639031.551646-2.375546-.088052-1.357291.751002-1.9277 2.756803-1.87416.964691.025719 1.597994-.204516 1.54091-.560264-.061985-.386099.848438-.581967 2.523787-.542988 1.441389.033507 2.871768-.172003 3.178608-.456772.306841-.284748 1.126913-.356794 1.822374-.160086.900177.254623 1.434049.094783 1.853054-.554936.32372-.501929.410032-.732831.19181-.513119-.218214.219722-.930324-.661933-1.582453-1.959229-.652137-1.297286-1.191066-2.136775-1.197642-1.865502-.006568.271264-.395911.036684-.865219-.521101-.4693-.557856-.841829-1.282684-.827822-1.610715.013957-.328031.217015-.160813.451123.37158.234108.532393.749983.978303 1.14637.990907.532665.016907.596136-.140699.243262-.604141-.262597-.344866-.359869-.982125-.216178-1.416108.213649-.645272.325847-.654443.615676-.050312.260881.543808.358383.451033.36945-.351578.018883-1.363398-.973148-3.150245-1.459245-2.628591-.199404.213963-.212861.082999-.029884-.29103.182952-.374039.51269-.533151.732767-.353566.220069.179575.405139.081257.411255-.218554.005747-.29978-.173855-.695993-.399942-.880466-.552303-.450685-.004105-2.027903 1.001546-2.883583.448233-.381242.694016-.951938.54617-1.268236-.174972-.374357.09045-.426677.760492-.1499.840802.347305.931991.290989.497986-.307527-.645602-.890324-.665232-2.538429-.033086-2.77928.434153-.165404.553141-1.104359.417774-3.296518-.035221-.570111-.426419-.971386-.968698-.993612-.522788-.021518-.706897-.201227-.432905-.422803.687965-.55637 1.132602-2.188153.693819-2.546207-.20589-.168017-.468775-.000184-.584191.373014-.115408.373168-.321668.545099-.458348.382083-.13668-.163027-.067486-.641921.153708-1.064243.339286-.64769.539816-.604274 1.281556.277432.858758 1.020796.880637 1.020981.935004.008197.03087-.574804.147665-.730361.26203-.348904.113495.378568.407536.694702.653401.702531.245873.008197.342283-.354334.21424-.804763s-.093249-.777845.077338-.727564c.170587.050312.87292-.177546 1.560754-.506243.687834-.328687 1.427793-.453032 1.644364-.276305.21658.176747.399367.047135.406206-.288048.006568-.335163.1925-.462459.412577-.282883.220069.179585.520612.096525.667859-.184586.147255-.28109.607721-.498199 1.023278-.48246 1.206065.045701 1.957896-.230768 3.971349-1.460271 1.039764-.634912 2.162834-1.145736 2.495709-1.135161.332866.010554.691101-.27693.79605-.638929.204092-.703853 4.284101-.917837 4.269939-.223934-.004105.221157.536047.231619 1.201254.023158 1.310915-.410681 4.087299-.237162 6.096746.381017 1.042481.320715 1.363648.160772 1.858325-.92545.328917-.722225.486204-1.552431.349508-1.844875-.352431-.754011-3.299114-1.362537-8.112375-1.6753-2.280262-.148169-4.574119-.578299-5.097457-.955842-.523338-.377543-1.107529-.659023-1.298206-.625506-.190685.033507-1.060133.009222-1.9321-.054103-1.193381-.086483-1.636393-.386345-1.79157-1.21235-.167459-.89139.011658-1.093702.954265-1.07782 1.108399.018649 1.123596-.017112.338942-.798133-.734655-.731242-.398768-.790787 3.177705-.563379 2.199557.139859 3.997014.404544 3.994362.588187-.002463.183653.537213.272442 1.199703.197323 2.965838-.33629 7.487988-.658347 9.159256-.652281 1.004403.004099 1.734174-.190222 1.621721-.430796-.112444-.240574.151795-.462428.587212-.492994 1.72167-.120881 2.135093-.207887 2.897309-.609777.435532-.229641 1.186952-1.326161 1.66984-2.436699.891302-2.049831 2.319719-3.212331 2.589894-2.107736.103306.422363.34615.409011.807281-.044369.418086-.411081.763251-.448584.942828-.102468.298918.576167 7.345183.804999 7.810041.253772.149184-.176952.498306-.074084.775829.228606.535563.584119 3.172754.576874 3.980076-.010964.264461-.192548 1.154351-.094783 1.977534.217253.823192.312056 5.120864.806946 9.550397 1.099758 4.429525.292823 10.605965.735034 13.725412.982689 16.812716 1.33481 21.947226 1.638207 32.407652 1.914963 8.217545.217406 11.46134.476671 11.452383.915347-.009031.442651.14911.453124.571498.037811.589815-.579928 3.221891-.65017 10.795435-.288079 2.281066.109057 4.344321.184033 4.58503.166603.240693-.01742 2.60413-.196933 5.252052-.398908 2.64793-.201964 5.139205-.23 5.536159-.062301.396962.16772.829128.099906.960373-.150618.131253-.250544 1.872693-.457602 3.869857-.460112 1.997173-.002049 4.760059-.216494 6.139758-.475544 1.379699-.259029 5.022599-.500761 8.095331-.537188 3.072748-.036581 6.964337-.115656 8.647995-.175897 1.683649-.060251 3.42398.138701 3.867402.442088.443414.303387.701725.328072.574002.05482-.131532-.281418 1.600819-.418223 3.995897-.31556 2.325458.099701 4.921648-.089967 5.769315-.421451 1.163677-.45505 1.616787-.445756 1.849754.038016.211005.438112.314517.450972.327472.040577.011494-.369356 1.236976-.608352 3.187582-.621796 4.334018-.029818 17.525665.333011 20.199596.555612 1.199686.099906 3.953041.085151 6.118568-.032585 5.224417-.284236 13.332218-.192281 13.325166.15114-.008703.424033 2.090274.297485 5.597389-.337458 1.759354-.318512 3.727233-.387821 4.373073-.153979 1.51252.547609 4.445288.776502 4.453613.347582.003284-.181819.546827-.312722 1.207338-.290907 12.216053.40355 35.274231.113739 36.052695-.453072.18773-.136672.336856-.031253.331446.234324-.005747.265556.57947.393938 1.299807.285302.720304-.108647 1.652262-.005123 2.070981.23043.963755.541718 2.706976.762464 2.498475.31639-.086509-.185108 3.222351-.177751 7.353048.016395 4.130689.194115 7.509457.394942 7.508414.446299 0 .051336 1.225449.180907 2.72558.287904 1.500049.106997 2.730547.036479 2.734398-.156858.004105-.193265.691873-.135586 1.528948.128177.837157.263773 1.610892.309914 1.719527.10256.108602-.207375 1.977781-.306472 4.153628-.220214 2.358733.093451 3.963287-.063223 3.973911-.388036.010837-.321258.14448-.29728.32652.058407.382676.747699 3.682751.814262 4.136346.083511.221325-.356578.330403-.353105.327316.010452 0 .299924.732931.540017 1.634463.533612.901581-.006148 2.089946.21549 2.640837.493086.598993.301901 1.328674.299422 1.815576-.006148.78472-.492471 2.618185-.64394 12.050785-.995548 2.405226-.089659 6.342939-.321196 8.750341-.514543 2.407394-.193347 7.816815-.273887 12.02095-.178981 4.204144.094988 8.433698.013321 9.399054-.181204.965356-.194587 6.276077-.255565 11.801587-.135504 12.977136.281951 22.743226.151284 26.633231-.356353 1.703821-.222335 5.365284-.700461 8.136684-1.062501 2.77131-.36203 7.402825-.865742 10.292162-1.11936 2.889337-.253629 6.140185-.555838 7.224077-.671596 3.551022-.379224 7.163947-.162668 10.084515.604469 1.841684.483741 7.442077.894648 15.620608 1.146053 7.012292.215582 12.88525.498322 13.051018.628354.16576.130052 7.569349.627657 16.452388 1.105804 8.883031.478157 17.720808 1.034783 19.639452 1.236963 10.772505 1.135151 18.950871 1.602476 36.882865 2.107613 2.52221.07101 5.272076.228063 6.110801.348924 1.814016.261396 10.2109 1.002178 18.102606 1.597046 17.055995 1.285645 23.419705 1.699749 34.913106 2.27191 6.962942.346618 13.345018.784874 14.182372.973897.837354.189023 3.092822.483495 5.012065.654381 3.551868.316237 7.607 1.043667 8.129788 1.458345.158905.126077 1.628166.399738 3.264994.608127 1.636869.208399 4.150459.649616 5.585764.980465 1.435313.330869 3.197212.721088 3.915226.867166.718055.146068 2.89992.833219 4.848588 1.526999 1.948676.69377 3.952466 1.274435 4.452849 1.290349.500457.015883.905661.23332.90053.483126-.004926.249817.236358.464785.536499.477716 2.948942.126968 9.996438 1.189776 11.101857 1.674204.770172.337519 1.800831 1.354955 2.290385 2.260967.966678 1.789163 3.583616 3.622336 5.997109 4.201167 3.01972.724162 8.246945 1.497918 9.342651 1.382949.615668-.064555 1.114015.147113 1.107447.470461-.00821.323348.124135.426359.290634.228934.166499-.197446.70253.134377 1.191189.737349.488741.602993 2.19872 2.002337 3.799998 3.109668 2.332789 1.613195 3.526359 2.076452 6.005697 2.330952 3.274558.336157 3.853281.821691 3.486376 2.924908-.233739 1.340415-1.993963 2.389093-3.90796 2.328237-.55048-.017522-1.127397.209588-1.281909.504655-.154512.295057-.947598.515281-1.762194.489377-2.299867-.073162-5.915305.922591-5.917193 1.629631 0 1.162715 3.299599 2.68835 6.550595 3.025993 1.761127.182905 5.852006.56175 9.090933.841887 6.541728.565798 7.226606.735915 7.550572 1.875339.477576 1.679953-5.635754 7.147686-10.617254 9.496047-1.607272.75771-2.423099 1.532655-2.984089 2.834429-.962705 2.234069-.544733 3.324502 2.046671 5.34014 1.005561.782087 1.820567 1.797063 1.811208 2.255515-.009031.458442.270273 1.210813.621415 1.671929.995627 1.307625.723958 2.619707-.755238 3.647768-.745468.518119-2.218424 1.909102-3.273245 3.091039-1.605712 1.799225-2.267027 2.170559-4.063539 2.281481-1.580671.09755-2.344365.443748-2.900347 1.314613-.415098.65018-.664107 1.375961-.553436 1.612846.110835.236896.000082.42431-.245807.416491-.245889-.008197-.688408.530333-.983394 1.195894-.294821.665571-.384392 1.04255-.198846.837758.46173-.509758 1.63576 1.111286 1.287 1.777082-.162312.309904.053365.4293.512632.284195.435869-.137635 0 .212888-.976497.779013-.972885.566084-2.395021 1.015786-3.160111.999329-.765172-.016497-1.900122.193244-2.522194.466014-.831755.364725-1.130927.319126-1.130763-.17229.000082-.367542-.204347-.254531-.454588.251129-.859341 1.736833-.070606 3.667217 2.090348 5.122047 1.120254.753847 2.330573 1.962549 2.689678 2.686004.359023.723455 1.420658 1.629323 2.359143 2.013055 3.497706 1.430023 3.986694 4.272557.906548 5.269868-1.914408.61986-2.857244 2.353055-2.319489 4.263632.279879.994124.264526 1.445537-.04926 1.435577-.806715-.025617-1.605383 1.308147-1.586418 2.649566.018883 1.326581-.015599 1.348038-3.716256 2.292486-.60401.154163-1.700866.904178-2.437467 1.666683-.736683.762505-1.886904 1.720304-2.556183 2.128455-.669361.40814-1.224111 1.095065-1.232896 1.526496-.020525 1.012148-1.606779 2.010022-3.495407 2.199117-2.064897.206729-2.917834.8499-3.03417 2.288039-.09696 1.198763 1.580261 3.814453 2.463821 3.84254.539972.017215 2.955846 3.228787 2.941971 3.910998-.018883.932705-1.606122 1.523064-4.659585 1.733328-1.665062.114651-4.015379.43802-5.222824.718608-1.999463.46461-9.135029 1.748022-10.761471 1.935569-.680256.078388-1.016792 2.01449-.353859 2.035568.197155.006148.152575.463442-.099021 1.01596-.251628.552497-.323827 1.180144-.160391 1.394753.547525.71912.208099 7.637616-.412339 8.404855-.323909.400517-1.494318.775529-2.600944.833362-1.785913.093348-2.981018.911893-2.589795 1.773793.075696.166715-.142961.610658-.48595.986562-.342907.375883-.619839.502062-.615348.280404.004105-.221669-.228821-.121886-.518494.22173-.384482.456003-.679533.458155-1.092234.008197-.412947-.450337-.922944-.445193-1.889868.019059-2.229007 1.070196-1.537249 2.733877 1.457554 3.50542 3.349622.862955 4.09454 1.255335 3.568263 1.87954-.142829.169431-3.251685.291942-6.908624.272247-7.777086-.041909-8.675178.374592-9.390704 4.354705-.231432 1.287254-.904947 3.246002-1.496888 4.352748-.97786 1.828439-1.751513 4.214703-1.823556 5.624274-.015271.299493-.690231.60243-1.499811.673204-1.00969.088327-1.547347.45462-1.712187 1.166588-.132132.570849-.411666.89803-.621201.727051-.209544-.170978-.386092-.061481-.392307.243372-.005747.304832-.913395 1.176097-2.015933 1.936143-3.128018 2.156265-3.594165 3.981343-1.314684 5.146783 1.066216.545099 1.109508.956436.341388 3.239925-.563239 1.674266.852707 2.801895 5.532727 4.406155 4.530491 1.553015 5.792376 2.575779 4.465353 3.619139-.824046.647936-6.74142-.176306-16.047783-2.235268-4.21613-.932807-5.997314-.563984-6.976176 1.444553-.975742 2.00203-1.982148 2.57166-4.886518 2.765806-2.407032.160905-4.672442 1.575712-4.700184 2.935462-.017241.833946 1.906263 1.682514 4.134827 1.824309 1.675554.106608 3.642186 1.605612 2.661395 2.028559-.307432.132573-.857641.595319-1.222715 1.028307-.365041.432999-.660774.640814-.657128.461813.013629-.659269-2.676386 1.323825-3.221538 2.375085-.679172 1.309705-2.976568 3.07157-3.881507 2.976695-2.249376-.23583-5.242742.038118-5.251797.480565-.017651.845146 2.236667 3.337557 2.707937 2.994443.237236-.172741.294041-.052054.12636.26822-.167812.320253-.105277.74527.138782.944478.244091.199208.320625.597481.169931.885088-.150612.287597-.037273.898224.252556 1.356973.823159 1.304038-.015271 1.798631-3.355599 1.979825-1.680685.091197-3.945127.380023-5.031991.64189-1.086946.261877-4.73827.917888-8.114107 1.457802-3.375927.539894-7.241482 1.414653-8.590197 1.9439-1.3785.540939-3.63689.924589-5.158072.876224-1.488259-.04734-4.138308.367153-5.889107.921034-3.005747.950923-4.03501.963916-18.462155.232961-8.403468-.425755-16.947155-.935246-18.986068-1.132179-5.313528-.513221-11.844484-1.310832-12.740975-1.556007-.422446-.115533-5.53056-.52895-11.351564-.918718-8.323125-.557313-11.846332-.566884-16.496451-.044779-3.252129.365134-9.228146.707378-13.280151.760558-4.051922.053181-8.085807.182823-8.964211.288109-3.031608.363372-13.429006.896503-19.530308 1.00142-3.366059.057894-9.465637.23044-13.554594.383435-4.089007.152995-12.350639.272073-18.359136.264613-6.008488-.007173-11.515723.048467-12.238351.12413-.722587.075724-5.660409.15695-10.973018.180467-5.312568.023568-10.230546.111014-10.928799.194402-1.343181.160414-4.651835.338718-16.360707.881717-9.190315.426205-16.091764.993099-21.790177 1.78987-2.477868.346465-5.256083.606067-6.173731.576895-.917615-.029203-2.242882.159184-2.944976.418582-.702103.259387-2.518926.559783-4.037374.667558-1.518489.107755-4.675291.621468-7.015182 1.141565-2.339965.520107-5.436194 1.038974-6.880604 1.153062-1.44441.114078-4.104959.398887-5.912283.632924-1.807399.234027-4.467792.511203-5.911996.615966-1.444213.104774-4.764493.500484-7.378384.87938-2.613883.378896-6.358415.783358-8.321196.898808-1.962781.11544-4.69878.358136-6.079973.53933-1.381226.181184-4.923356.302004-7.871378.268487-2.94803-.033507-6.838527.116209-8.64554.332734-3.567237.427435-11.158202.700328-17.055248.613148-2.042328-.030228-4.601877.123699-5.687896.341997-1.086011.218277-8.560624.317968-16.610258.221515-8.049626-.096422-15.059939-.080335-15.578466.035761-.518535.116117-4.749296.255986-9.401698.310816-4.652402.05482-9.443084.14573-10.645964.201975-1.20288.056255-5.629203.142789-9.836269.192302-4.207067.049492-9.322898.196882-11.36851.327477-2.045604.130606-3.914462.165599-4.153012.077773-.238558-.087815-3.28868.015063-6.778061.228483-3.489381.213492-8.312272.460717-10.717539.549392-2.405275.088635-5.06309.239755-5.906266.335747-.843167.096013-4.188496.247747-7.434056.337232-3.245561.089455-6.0016.235758-6.124537.325069-.122937.089352-2.683241.242572-5.689571.340573-3.006329.097959-5.861102.264111-6.343932.36912-.884283.192332-31.832935-.083921-45.220547-.403662-3.96378-.09468-10.544078-.456085-14.62288-.803154l.000296-.00126zm-88.627135-70.293844c.217737-.011067.043267-.532157-.387652-1.157786-.670749-.973805-1.222641-1.128716-3.83448-1.076375-1.678042.03361-3.125629.32092-3.216875.638417-.238919.831333 2.770776 1.855193 5.074404 1.726227 1.082792-.060661 2.146857-.119334 2.364603-.130483zm99.538914 40.8511c.002463-.132204-.191613-.24661-.431805-.254244-.240192-.007173-.44201.245862-.448496.563338-.006568.317466.187837.431872.431805.254244.243977-.177639.445795-.431144.448496-.563338zm-21.940313-16.969171c.002463-.117818-.297629-.369981-.66675-.560356-.384836-.198491-.561999-.112694-.415311.201134.245898.526071 1.073055.800664 1.082062.359222zm5.21257-17.218353c-.420393-.548009-.471829-.487-.250692.297342.153018.542763.391042.853026.528921.689487.137887-.163539.012643-.607615-.278229-.986828zm3.627178-6.429549c-.420401-.548009-.471845-.487-.250701.297342.153026.542752.391042.853026.528929.689487.137879-.163539.012643-.607615-.278229-.986828zm-3.265741-3.230826c-.142329-.304484-.345436-.556381-.451353-.559752-.105925-.003074-.19759.23915-.203707.53893-.005747.29978.196991.551667.451361.559762.254362.008197.346027-.234437.203698-.538941zm17.862365-25.438735c-.312037-.167474-.689098-.160096-.837904.016395-.148814.176511.106492.313532.567336.304494.509274-.010247.615397-.135832.270569-.320899v.00001zm-.05279-1.42992c-.654107-.709591-1.689462-2.866675-1.676671-3.493236.004105-.190662.300273-.026847.658623.363966.848873.925839 1.364182.305355.665576-.801433-.614157-.972985-1.74708-.253834-1.775265 1.126892-.008785.430652-.169257.657937-.356585.505075-.187336-.152862-.378859.19471-.425606.772383-.056895.703648.194339 1.059201.761289 1.077226.465458.014858.841279.272186.835154.571966-.005747.29978.431206.551309.971834.558953.843454.011989.891934-.084844.341651-.681791zm-2.596453-1.24928c.002463-.132194.204519-.3857.448488-.563338.243968-.177639.438283-.063223.431805.254244-.006568.317466-.208304.570972-.448496.563338-.240184-.007173-.434498-.12205-.431797-.254244zm7.954816-11.096454c.040393-.673655-.027832-.919722-.151663-.546831-.123815.372902-.399811.535457-.61332.36123-.213509-.174226-.278935.067629-.145391.537383.353654 1.244054.825606 1.061681.910374-.351783zm-2.237422-.516469c.489398-.934231-.041789-1.152273-.659164-.270556-.355033.507063-.394548.81874-.104965.827952.255421.008197.599281-.242716.764129-.557395zm14.55697-18.259049c.002463-.117818-.287522-.364766-.644288-.548778-.356757-.184012-.653508-.097037-.659435.193378-.005747.290374.284.537322.644288.548788.360288.011476.65703-.075621.659435-.193388zM26.722543 200.768154c.005747-.282084.210077-.658224.454054-.835852.243968-.177649.435779.059431.426239.526767-.009524.467357-.213862.843486-.454054.835852-.240192-.007173-.431994-.244673-.426239-.526767zM207.779767 83.827569c.260232-.308664.728744-.445756 1.041126-.304668.324295.146468.121295.387237-.473159.561207-.73124.213984-.900292.137625-.567968-.256539zm6.21318.289411c-.448397-.382216-.477838-.56715-.096837-.608312.96034-.103708 1.194259-.182711 1.729699-.58418.288237-.216125.660412-.101238.827051.255258.189224.404831.116664.496171-.193263.243269-.294058-.239939-.503314-.058714-.513593.444803-.01954.958721-.791863 1.068485-1.753057.249161zm-2.223613-1.298351c.338925-.402013.658146-.42183.935111-.058099.276964.363741.101303.57211-.514595.610351-.704287.043754-.808086-.092631-.420516-.552272v.00002zm11.153137-7.994543c.009524-.467357.210767-.691915.447182-.498999.236407.192906.425122.581547.419359.863631-.005747.282084-.206982.506633-.447166.498999-.2402-.007173-.428907-.396274-.419375-.863631zm.671693-9.094281c.746782-1.68566.822338-1.732959.718515-.449804-.050574.624419-.352283 1.250632-.670568 1.391567-.461993.204577-.471664.014653-.047946-.941763zm3.00793-19.913671c-.365353-.298131-.154512-.548091.652703-.773838 1.463178-.409216 1.742991-.151704.682891.628467-.437749.322159-1.03877.387585-1.335595.145371zm9.576365-36.589313c.148814-.176511.525867-.183889.837913-.016395.34482.185067.238706.310929-.270569.320899-.460844.009222-.71615-.127983-.567344-.304484v-.00002zm1.354634-2.138569c.148806-.176501.525867-.183879.837904-.016395.34482.185067.238706.310939-.270569.320909-.460844.009222-.71615-.127993-.567336-.304504v-.00001zm7.919505-6.736215c-.007389-.575173.102551-.893818.243968-.708095.141417.185733.147337.656338.013136 1.045788-.148281.430366-.249132.297926-.257121-.337694h.000016zm15.86869-29.810952c-.387118-.329988-.436608-.545929-.123996-.541.286151.005123.636743.257328.779063.561822.321274.687345.170095.68255-.655068-.020801v-.00002z" filter="url(#a)"/>
  </g>
</svg>